<svg width="204" height="154" viewBox="0 0 204 154" fill="none" xmlns="http://www.w3.org/2000/svg">
	<path
		d="M12.98 127.889L7.92 137.635V143.179H5.412V137.635L0.33 127.889H3.124L6.666 135.391L10.208 127.889H12.98ZM20.2283 143.377C19.0843 143.377 18.0503 143.12 17.1263 142.607C16.2023 142.079 15.4763 141.346 14.9483 140.407C14.4203 139.454 14.1563 138.354 14.1563 137.107C14.1563 135.875 14.4276 134.782 14.9703 133.829C15.513 132.876 16.2536 132.142 17.1923 131.629C18.131 131.116 19.1796 130.859 20.3383 130.859C21.497 130.859 22.5456 131.116 23.4843 131.629C24.423 132.142 25.1636 132.876 25.7063 133.829C26.249 134.782 26.5203 135.875 26.5203 137.107C26.5203 138.339 26.2416 139.432 25.6843 140.385C25.127 141.338 24.3643 142.079 23.3963 142.607C22.443 143.12 21.387 143.377 20.2283 143.377ZM20.2283 141.199C20.8736 141.199 21.475 141.045 22.0323 140.737C22.6043 140.429 23.0663 139.967 23.4183 139.351C23.7703 138.735 23.9463 137.987 23.9463 137.107C23.9463 136.227 23.7776 135.486 23.4403 134.885C23.103 134.269 22.6556 133.807 22.0983 133.499C21.541 133.191 20.9396 133.037 20.2943 133.037C19.649 133.037 19.0476 133.191 18.4903 133.499C17.9476 133.807 17.515 134.269 17.1923 134.885C16.8696 135.486 16.7083 136.227 16.7083 137.107C16.7083 138.412 17.0383 139.424 17.6983 140.143C18.373 140.847 19.2163 141.199 20.2283 141.199ZM39.9776 131.057V143.179H37.4696V141.749C37.0736 142.248 36.5529 142.644 35.9076 142.937C35.2769 143.216 34.6023 143.355 33.8836 143.355C32.9303 143.355 32.0723 143.157 31.3096 142.761C30.5616 142.365 29.9676 141.778 29.5276 141.001C29.1023 140.224 28.8896 139.285 28.8896 138.185V131.057H31.3756V137.811C31.3756 138.896 31.6469 139.732 32.1896 140.319C32.7323 140.891 33.4729 141.177 34.4116 141.177C35.3503 141.177 36.0909 140.891 36.6336 140.319C37.1909 139.732 37.4696 138.896 37.4696 137.811V131.057H39.9776ZM45.7947 132.817C46.1614 132.201 46.6454 131.724 47.2467 131.387C47.8627 131.035 48.5887 130.859 49.4247 130.859V133.455H48.7867C47.8041 133.455 47.0561 133.704 46.5427 134.203C46.0441 134.702 45.7947 135.567 45.7947 136.799V143.179H43.2867V131.057H45.7947V132.817ZM56.6089 135.501C56.6089 134.005 56.9536 132.663 57.6429 131.475C58.3469 130.287 59.2929 129.363 60.4809 128.703C61.6836 128.028 62.9963 127.691 64.4189 127.691C66.0469 127.691 67.4916 128.094 68.7529 128.901C70.0289 129.693 70.9529 130.822 71.5249 132.289H68.5109C68.1149 131.482 67.5649 130.881 66.8609 130.485C66.1569 130.089 65.3429 129.891 64.4189 129.891C63.4069 129.891 62.5049 130.118 61.7129 130.573C60.9209 131.028 60.2976 131.68 59.8429 132.531C59.4029 133.382 59.1829 134.372 59.1829 135.501C59.1829 136.63 59.4029 137.62 59.8429 138.471C60.2976 139.322 60.9209 139.982 61.7129 140.451C62.5049 140.906 63.4069 141.133 64.4189 141.133C65.3429 141.133 66.1569 140.935 66.8609 140.539C67.5649 140.143 68.1149 139.542 68.5109 138.735H71.5249C70.9529 140.202 70.0289 141.331 68.7529 142.123C67.4916 142.915 66.0469 143.311 64.4189 143.311C62.9816 143.311 61.6689 142.981 60.4809 142.321C59.2929 141.646 58.3469 140.715 57.6429 139.527C56.9536 138.339 56.6089 136.997 56.6089 135.501ZM73.6245 137.063C73.6245 135.846 73.8739 134.768 74.3725 133.829C74.8859 132.89 75.5752 132.164 76.4405 131.651C77.3205 131.123 78.2885 130.859 79.3445 130.859C80.2979 130.859 81.1265 131.05 81.8305 131.431C82.5492 131.798 83.1212 132.26 83.5465 132.817V131.057H86.0765V143.179H83.5465V141.375C83.1212 141.947 82.5419 142.424 81.8085 142.805C81.0752 143.186 80.2392 143.377 79.3005 143.377C78.2592 143.377 77.3059 143.113 76.4405 142.585C75.5752 142.042 74.8859 141.294 74.3725 140.341C73.8739 139.373 73.6245 138.28 73.6245 137.063ZM83.5465 137.107C83.5465 136.271 83.3705 135.545 83.0185 134.929C82.6812 134.313 82.2339 133.844 81.6765 133.521C81.1192 133.198 80.5179 133.037 79.8725 133.037C79.2272 133.037 78.6259 133.198 78.0685 133.521C77.5112 133.829 77.0565 134.291 76.7045 134.907C76.3672 135.508 76.1985 136.227 76.1985 137.063C76.1985 137.899 76.3672 138.632 76.7045 139.263C77.0565 139.894 77.5112 140.378 78.0685 140.715C78.6405 141.038 79.2419 141.199 79.8725 141.199C80.5179 141.199 81.1192 141.038 81.6765 140.715C82.2339 140.392 82.6812 139.923 83.0185 139.307C83.3705 138.676 83.5465 137.943 83.5465 137.107ZM91.8787 132.817C92.2454 132.201 92.7294 131.724 93.3307 131.387C93.9467 131.035 94.6727 130.859 95.5087 130.859V133.455H94.8707C93.888 133.455 93.14 133.704 92.6267 134.203C92.128 134.702 91.8787 135.567 91.8787 136.799V143.179H89.3707V131.057H91.8787V132.817ZM100.74 133.103V139.813C100.74 140.268 100.843 140.598 101.048 140.803C101.268 140.994 101.635 141.089 102.148 141.089H103.688V143.179H101.708C100.579 143.179 99.7134 142.915 99.1121 142.387C98.5107 141.859 98.2101 141.001 98.2101 139.813V133.103H96.7801V131.057H98.2101V128.043H100.74V131.057H103.688V133.103H100.74ZM112.99 129.451C112.536 129.451 112.154 129.297 111.846 128.989C111.538 128.681 111.384 128.3 111.384 127.845C111.384 127.39 111.538 127.009 111.846 126.701C112.154 126.393 112.536 126.239 112.99 126.239C113.43 126.239 113.804 126.393 114.112 126.701C114.42 127.009 114.574 127.39 114.574 127.845C114.574 128.3 114.42 128.681 114.112 128.989C113.804 129.297 113.43 129.451 112.99 129.451ZM114.222 131.057V143.179H111.714V131.057H114.222ZM121.915 143.377C120.962 143.377 120.104 143.208 119.341 142.871C118.593 142.519 117.999 142.05 117.559 141.463C117.119 140.862 116.885 140.194 116.855 139.461H119.451C119.495 139.974 119.737 140.407 120.177 140.759C120.632 141.096 121.197 141.265 121.871 141.265C122.575 141.265 123.118 141.133 123.499 140.869C123.895 140.59 124.093 140.238 124.093 139.813C124.093 139.358 123.873 139.021 123.433 138.801C123.008 138.581 122.326 138.339 121.387 138.075C120.478 137.826 119.737 137.584 119.165 137.349C118.593 137.114 118.095 136.755 117.669 136.271C117.259 135.787 117.053 135.149 117.053 134.357C117.053 133.712 117.244 133.125 117.625 132.597C118.007 132.054 118.549 131.629 119.253 131.321C119.972 131.013 120.793 130.859 121.717 130.859C123.096 130.859 124.203 131.211 125.039 131.915C125.89 132.604 126.345 133.55 126.403 134.753H123.895C123.851 134.21 123.631 133.778 123.235 133.455C122.839 133.132 122.304 132.971 121.629 132.971C120.969 132.971 120.463 133.096 120.111 133.345C119.759 133.594 119.583 133.924 119.583 134.335C119.583 134.658 119.701 134.929 119.935 135.149C120.17 135.369 120.456 135.545 120.793 135.677C121.131 135.794 121.629 135.948 122.289 136.139C123.169 136.374 123.888 136.616 124.445 136.865C125.017 137.1 125.509 137.452 125.919 137.921C126.33 138.39 126.543 139.014 126.557 139.791C126.557 140.48 126.367 141.096 125.985 141.639C125.604 142.182 125.061 142.607 124.357 142.915C123.668 143.223 122.854 143.377 121.915 143.377ZM137.49 129.913V134.401H142.77V136.447H137.49V141.133H143.43V143.179H134.982V127.867H143.43V129.913H137.49ZM161.193 130.859C162.146 130.859 162.997 131.057 163.745 131.453C164.508 131.849 165.102 132.436 165.527 133.213C165.967 133.99 166.187 134.929 166.187 136.029V143.179H163.701V136.403C163.701 135.318 163.43 134.489 162.887 133.917C162.344 133.33 161.604 133.037 160.665 133.037C159.726 133.037 158.978 133.33 158.421 133.917C157.878 134.489 157.607 135.318 157.607 136.403V143.179H155.121V136.403C155.121 135.318 154.85 134.489 154.307 133.917C153.764 133.33 153.024 133.037 152.085 133.037C151.146 133.037 150.398 133.33 149.841 133.917C149.298 134.489 149.027 135.318 149.027 136.403V143.179H146.519V131.057H149.027V132.443C149.438 131.944 149.958 131.556 150.589 131.277C151.22 130.998 151.894 130.859 152.613 130.859C153.581 130.859 154.446 131.064 155.209 131.475C155.972 131.886 156.558 132.48 156.969 133.257C157.336 132.524 157.908 131.944 158.685 131.519C159.462 131.079 160.298 130.859 161.193 130.859ZM171.887 132.839C172.312 132.282 172.891 131.812 173.625 131.431C174.358 131.05 175.187 130.859 176.111 130.859C177.167 130.859 178.127 131.123 178.993 131.651C179.873 132.164 180.562 132.89 181.061 133.829C181.559 134.768 181.809 135.846 181.809 137.063C181.809 138.28 181.559 139.373 181.061 140.341C180.562 141.294 179.873 142.042 178.993 142.585C178.127 143.113 177.167 143.377 176.111 143.377C175.187 143.377 174.365 143.194 173.647 142.827C172.928 142.446 172.341 141.976 171.887 141.419V148.943H169.379V131.057H171.887V132.839ZM179.257 137.063C179.257 136.227 179.081 135.508 178.729 134.907C178.391 134.291 177.937 133.829 177.365 133.521C176.807 133.198 176.206 133.037 175.561 133.037C174.93 133.037 174.329 133.198 173.757 133.521C173.199 133.844 172.745 134.313 172.393 134.929C172.055 135.545 171.887 136.271 171.887 137.107C171.887 137.943 172.055 138.676 172.393 139.307C172.745 139.923 173.199 140.392 173.757 140.715C174.329 141.038 174.93 141.199 175.561 141.199C176.206 141.199 176.807 141.038 177.365 140.715C177.937 140.378 178.391 139.894 178.729 139.263C179.081 138.632 179.257 137.899 179.257 137.063ZM187.215 133.103V139.813C187.215 140.268 187.317 140.598 187.523 140.803C187.743 140.994 188.109 141.089 188.623 141.089H190.163V143.179H188.183C187.053 143.179 186.188 142.915 185.587 142.387C184.985 141.859 184.685 141.001 184.685 139.813V133.103H183.255V131.057H184.685V128.043H187.215V131.057H190.163V133.103H187.215ZM203.386 131.057L195.95 148.877H193.354L195.818 142.981L191.044 131.057H193.838L197.248 140.297L200.79 131.057H203.386Z"
		fill="#2C3066"/>
	<circle cx="129.428" cy="52.5729" r="33.5719" fill="#DEFFE4"/>
	<path
		d="M149.155 29.8292L140.823 22.8707L146.446 13.351C146.643 13.019 146.673 12.6149 146.529 12.257C146.385 11.8999 146.084 11.6293 145.713 11.525L104.747 0.0471731C104.208 -0.10708 103.63 0.126275 103.344 0.611106L97.927 9.7807L89.9068 3.08332C89.4826 2.73032 88.8783 2.69876 88.4218 3.00422L58.3167 23.1207C57.9912 23.3381 57.7876 23.696 57.7664 24.0863C57.7454 24.4766 57.9103 24.8547 58.21 25.1051L66.5416 32.064L60.9192 41.5833C60.7269 41.9082 60.693 42.3031 60.8279 42.6563C60.962 43.0093 61.2505 43.2816 61.6108 43.3964L66.9061 45.0844V70.5396C66.9061 71.0801 67.2558 71.5577 67.7706 71.7216L109.971 85.1742C110.094 85.2138 110.221 85.2332 110.347 85.2332C110.617 85.2332 110.882 85.1451 111.101 84.9779L139.972 62.886C140.279 62.6509 140.459 62.2866 140.459 61.9004V38.3892L149.113 31.7673C149.413 31.5379 149.592 31.1847 149.6 30.8082C149.608 30.431 149.444 30.0707 149.155 29.8293V29.8292ZM110.107 43.86L99.4933 40.4764V13.3063L136.491 23.6719L110.107 43.86ZM97.0112 39.6856L70.9782 31.387L97.0112 13.9915V39.6856ZM104.996 2.69391L143.488 13.4792L138.636 21.6953L100.142 10.9103L104.996 2.69391ZM89.0286 5.58405L96.1839 11.5595L68.2296 30.2393L61.0741 24.2633L89.0286 5.58405ZM68.7118 33.2688L108.487 45.9482L103.622 54.184L63.8479 41.5049L68.7118 33.2688ZM69.3882 45.8756L103.811 56.8489C103.935 56.8892 104.062 56.9079 104.187 56.9079C104.617 56.9079 105.028 56.6841 105.256 56.2979L109.106 49.7784V82.2937L69.3881 69.6331L69.3882 45.8756ZM137.977 61.287L111.588 81.4796V47.8936L118.692 53.8262C118.922 54.0178 119.205 54.1146 119.488 54.1146C119.753 54.1146 120.018 54.0298 120.242 53.8594L137.977 40.2885V61.287ZM119.522 51.2853L112.334 45.2817L139.184 24.7359L146.373 30.7397L119.522 51.2853Z"
		fill="#40AA54"/>
</svg>
