<svg width="18" height="17" viewBox="0 0 18 17" fill="none" xmlns="http://www.w3.org/2000/svg">
<path d="M1.9 16.6679H15.857C16.1967 16.6929 16.5325 16.5828 16.7916 16.3617C17.0507 16.1407 17.2122 15.8263 17.241 15.4869C17.2119 15.1477 17.0503 14.8337 16.7913 14.6128C16.5322 14.3919 16.1965 14.282 15.857 14.3069H1.884C1.54431 14.282 1.20849 14.3921 0.949401 14.6131C0.690308 14.8342 0.528831 15.1486 0.5 15.4879C0.529079 15.8271 0.690662 16.1412 0.949728 16.3621C1.20879 16.583 1.54447 16.6929 1.884 16.6679H1.9Z" fill="#2C3066"/>
<path d="M1.90102 9.77194H15.857C16.109 9.80117 16.3642 9.76573 16.5986 9.66898C16.8331 9.57223 17.039 9.41734 17.197 9.21894C17.3359 9.03636 17.4111 8.81331 17.4111 8.58394C17.4111 8.35456 17.3359 8.13151 17.197 7.94894C17.039 7.75053 16.8331 7.59564 16.5986 7.49889C16.3642 7.40214 16.109 7.3667 15.857 7.39594H1.88402C1.56504 7.40411 1.26054 7.53086 1.02997 7.75145C0.7994 7.97203 0.659303 8.27062 0.637024 8.58894C0.66167 8.90547 0.802803 9.20162 1.03313 9.42013C1.26347 9.63864 1.56663 9.76399 1.88402 9.77194H1.90102Z" fill="#2C3066"/>
<path d="M1.90099 2.876H7.21699C7.53518 2.86794 7.83901 2.74189 8.06946 2.52234C8.29991 2.30279 8.44053 2.00542 8.46399 1.688C8.44053 1.37058 8.29991 1.07321 8.06946 0.853661C7.83901 0.634114 7.53518 0.508065 7.21699 0.5L1.90099 0.5C1.5828 0.508065 1.27897 0.634114 1.04852 0.853661C0.818074 1.07321 0.677457 1.37058 0.653992 1.688C0.677457 2.00542 0.818074 2.30279 1.04852 2.52234C1.27897 2.74189 1.5828 2.86794 1.90099 2.876Z" fill="#2C3066"/>
</svg>
