<svg width="7" height="12" viewBox="0 0 7 12" fill="none" xmlns="http://www.w3.org/2000/svg">
<path d="M0.322528 4.89996C0.380514 4.84218 0.443416 4.79341 0.509597 4.751L4.93696 0.323836C5.36888 -0.107877 6.06962 -0.108082 6.50174 0.324041C6.93387 0.755959 6.93387 1.45649 6.50174 1.88882L2.68886 5.70171L6.52141 9.53447C6.95354 9.96639 6.95354 10.6667 6.52141 11.0993C6.30525 11.3156 6.02188 11.4234 5.73913 11.4234C5.45637 11.4234 5.1728 11.3156 4.95684 11.0993L0.509597 6.6516C0.443416 6.60919 0.380104 6.56042 0.322528 6.50264C0.101652 6.28177 -0.00489286 5.99082 0.000434365 5.7013C-0.00489286 5.41178 0.101652 5.12104 0.322528 4.89996Z" fill="black"/>
</svg>
