<svg width="13" height="11" viewBox="0 0 13 11" fill="none" xmlns="http://www.w3.org/2000/svg">
<g opacity="0.4">
<path d="M8.92386 1C8.36448 1 7.85163 1.17726 7.39958 1.52686C6.9662 1.86203 6.67766 2.28893 6.50779 2.59935C6.33792 2.28891 6.04939 1.86203 5.616 1.52686C5.16396 1.17726 4.65111 1 4.09173 1C2.5307 1 1.35352 2.27683 1.35352 3.97003C1.35352 5.79927 2.82214 7.05082 5.04545 8.94548C5.423 9.26724 5.85095 9.63194 6.29574 10.0209C6.35437 10.0723 6.42967 10.1005 6.50779 10.1005C6.58591 10.1005 6.66121 10.0723 6.71984 10.0209C7.16468 9.63191 7.59261 9.26722 7.97038 8.94528C10.1934 7.05082 11.6621 5.79927 11.6621 3.97003C11.6621 2.27683 10.4849 1 8.92386 1Z" stroke="#2C3066"/>
</g>
</svg>
