<svg width="49" height="56" viewBox="0 0 49 56" fill="none" xmlns="http://www.w3.org/2000/svg">
<path d="M22.7416 14.5242C23.7671 14.6122 24.7499 14.9748 25.587 15.5737C26.3297 15.0365 27.1907 14.6855 28.0973 14.5503L29.1999 5.18475C27.2141 4.5153 25.0302 4.80485 23.2874 5.96862C21.5447 7.13239 20.4404 9.03872 20.2979 11.1294C21.4205 12.0038 22.2687 13.1821 22.7416 14.5242L22.7416 14.5242Z" fill="white"/>
<path d="M27.0353 2.89667C27.9043 2.89794 28.7682 3.03043 29.5977 3.28964C29.7105 2.95371 29.847 2.62622 30.0062 2.30964L29.5089 0.821777L28.6834 1.64826C28.3897 1.9422 27.941 2.01532 27.5692 1.82978L25.978 1.03419L26.7302 2.91212C26.8325 2.90826 26.932 2.89667 27.0353 2.89667L27.0353 2.89667Z" fill="white"/>
<path d="M8 1C8 0.447715 8.44772 0 9 0H16C16.5523 0 17 0.447715 17 1V3C17 3.55228 16.5523 4 16 4H9C8.44772 4 8 3.55228 8 3V1Z" fill="white"/>
<path d="M34.0052 17.4372C34.2547 17.3991 34.5068 17.3797 34.7592 17.3792C36.6012 17.3835 38.3304 18.2671 39.413 19.7573L42.4544 7.08779C42.9484 5.0138 42.2537 2.83675 40.6496 1.43235C39.0455 0.02794 36.7957 -0.372982 34.8052 0.390848C32.8147 1.15468 31.4107 2.95771 31.1578 5.07469L30.0378 14.5937C31.7183 14.9021 33.1732 15.9449 34.0052 17.4372V17.4372ZM33.952 4.84104L39.7452 5.80655L39.4285 7.71055L33.6354 6.74503L33.952 4.84104ZM32.9865 9.66862L38.7796 10.6341L38.4629 12.5381L32.6698 11.5726L32.9865 9.66862Z" fill="white"/>
<path d="M39.5868 24.1379C39.0536 24.1379 38.6213 23.7057 38.6213 23.1724C38.6213 21.0395 36.8922 19.3104 34.7592 19.3104C34.4074 19.3166 34.0581 19.3715 33.7213 19.4735C33.2436 19.6066 32.7428 19.3562 32.5627 18.8942C32.101 17.6778 31.0557 16.7773 29.7844 16.5006C28.5131 16.224 27.1881 16.6087 26.2627 17.5232C25.8872 17.8912 25.2864 17.8912 24.911 17.5232C24.4202 17.0449 23.8105 16.7066 23.145 16.5432C23.1537 16.6948 23.173 16.8454 23.173 16.9979V24.3475C23.5305 24.4863 23.8582 24.6921 24.1385 24.9538C24.6925 24.4312 25.4248 24.1395 26.1864 24.1379C26.9852 24.1401 27.7509 24.4572 28.3173 25.0204L30.3314 27.0345H43.3118C42.8729 25.3345 41.3425 24.1445 39.5868 24.1379L39.5868 24.1379Z" fill="white"/>
<path d="M36.1245 32.8276H46.3455C47.412 32.8276 48.2765 31.9631 48.2765 30.8966C48.2765 29.8301 47.412 28.9656 46.3455 28.9656H32.2625L36.1245 32.8276Z" fill="white"/>
<path d="M27.601 32.8276L24.1386 29.3652L20.6763 32.8276H27.601Z" fill="white"/>
<path d="M45.2517 34.7585H38.0557L44.4522 41.1551L45.2517 34.7585Z" fill="white"/>
<path d="M5.79383 18.3449C5.79383 17.8117 6.22611 17.3794 6.75935 17.3794H18.3456C18.8788 17.3794 19.3111 17.8117 19.3111 18.3449V25.6693L19.9599 25.0205C20.3186 24.6695 20.7594 24.4136 21.2421 24.2761L21.2421 16.998C21.2441 15.1455 20.3179 13.4152 18.7752 12.3896C16.6967 11.007 15.4481 8.6758 15.449 6.17942L15.449 5.79321H9.6559V6.17942C9.65837 8.67751 8.40961 11.0108 6.32969 12.3945C4.78842 13.4191 3.86238 15.1472 3.86279 16.998L3.86279 27.0346H5.79383V18.3449Z" fill="white"/>
<path d="M10.2216 34.7585H3.02563L3.82508 41.1551L10.2216 34.7585Z" fill="white"/>
<path d="M36.6903 51.1723C36.6903 52.7721 35.3935 54.0689 33.7937 54.0689C32.194 54.0689 30.8972 52.7721 30.8972 51.1723V39.5861C30.8995 38.679 31.3287 37.8258 32.0558 37.2834L29.5319 34.7585H18.7452L16.2213 37.2834C16.9484 37.8258 17.3777 38.679 17.3799 39.5861V51.1723C17.3799 52.7721 16.0831 54.0689 14.4834 54.0689C12.8837 54.0689 11.5868 52.7721 11.5868 51.1723V41.9169L4.77222 48.7315L5.36408 53.4625C5.54519 54.9118 6.77693 55.9995 8.23746 55.9999H40.0397C41.5002 55.9995 42.7319 54.9118 42.913 53.4625L43.5049 48.7315L36.6903 41.9169L36.6903 51.1723ZM27.0351 51.1723C27.0351 52.7721 25.7383 54.0689 24.1386 54.0689C22.5388 54.0689 21.242 52.7721 21.242 51.1723V39.5861C21.242 37.9864 22.5388 36.6896 24.1386 36.6896C25.7383 36.6896 27.0351 37.9864 27.0351 39.5861V51.1723Z" fill="white"/>
<path d="M34.7594 51.1724V39.9859L33.4618 38.6882C33.0832 38.8251 32.8303 39.1836 32.8284 39.5862V51.1724C32.8284 51.7056 33.2606 52.1379 33.7939 52.1379C34.3271 52.1379 34.7594 51.7056 34.7594 51.1724Z" fill="white"/>
<path d="M26.952 26.3857C26.6425 26.0759 26.1767 25.9832 25.7721 26.1508C25.3675 26.3185 25.1037 26.7134 25.104 27.1514C25.1029 27.4387 25.2169 27.7145 25.4207 27.917L46.4284 48.9248C46.738 49.2346 47.2037 49.3273 47.6084 49.1597C48.013 48.992 48.2767 48.5971 48.2764 48.1591C48.2776 47.8718 48.1635 47.596 47.9597 47.3935L26.952 26.3857Z" fill="white"/>
<path d="M7.72485 19.3103H17.38V27.0344H7.72485V19.3103Z" fill="white"/>
<path d="M24.1386 38.6206C23.6054 38.6206 23.1731 39.0529 23.1731 39.5861V51.1723C23.1731 51.7056 23.6054 52.1378 24.1386 52.1378C24.6719 52.1378 25.1041 51.7056 25.1041 51.1723V39.5861C25.1041 39.0529 24.6719 38.6206 24.1386 38.6206Z" fill="white"/>
<path d="M13.5178 39.9859V51.1724C13.5178 51.7056 13.9501 52.1379 14.4833 52.1379C15.0166 52.1379 15.4489 51.7056 15.4489 51.1724V39.5862C15.4469 39.1836 15.194 38.8251 14.8155 38.6882L13.5178 39.9859Z" fill="white"/>
<path d="M23.1731 27.1514C23.1734 26.7134 22.9096 26.3185 22.505 26.1508C22.1004 25.9832 21.6347 26.0759 21.3251 26.3857L0.31737 47.3934C0.00754729 47.703 -0.0851827 48.1688 0.0824556 48.5734C0.250094 48.978 0.645056 49.2417 1.08303 49.2414C1.3699 49.2404 1.64486 49.1266 1.84868 48.9248L22.8564 27.917C23.0602 27.7145 23.1742 27.4387 23.1731 27.1514L23.1731 27.1514Z" fill="white"/>
<path d="M1.93177 32.8276H12.1527L16.0148 28.9656H1.93177C0.865286 28.9656 0.000732422 29.8301 0.000732422 30.8966C0.000732422 31.9631 0.865286 32.8276 1.93177 32.8276Z" fill="white"/>
</svg>
