<svg width="30" height="26" viewBox="0 0 30 26" fill="none" xmlns="http://www.w3.org/2000/svg">
<path d="M29.5546 8.56129C29.1585 8.06429 28.5642 7.77918 27.924 7.77918H22.1464L19.0135 0.605419C18.8193 0.160636 18.3012 -0.0426259 17.8563 0.151729C17.4115 0.345966 17.2084 0.864109 17.4027 1.30895L20.2283 7.77924H9.77186L12.5975 1.30895C12.7918 0.864109 12.5887 0.346023 12.1438 0.151733C11.6991 -0.0426259 11.1809 0.160522 10.9867 0.605419L7.85375 7.77924H2.07621C1.43602 7.77924 0.841705 8.0643 0.445555 8.56134C0.0566708 9.04931 -0.0868244 9.67661 0.0518662 10.2826L3.13722 23.7591C3.35266 24.7001 4.1851 25.3573 5.16156 25.3573H24.8386C25.8151 25.3573 26.6475 24.7001 26.863 23.7591L29.9483 10.2825C30.087 9.67655 29.9435 9.04925 29.5546 8.56129H29.5546ZM24.8386 23.5994H5.16156C5.01232 23.5994 4.8816 23.5015 4.85072 23.3667L1.76537 9.8903C1.74117 9.78454 1.78178 9.70497 1.82021 9.65686C1.85584 9.6121 1.93652 9.53704 2.07621 9.53704H7.08612L6.8559 10.0642C6.66166 10.509 6.86475 11.0271 7.30959 11.2214C7.42408 11.2715 7.54338 11.2951 7.66086 11.2951C7.99964 11.2951 8.32249 11.0981 8.46675 10.7678L9.00423 9.53716H20.9961L21.5335 10.7678C21.6778 11.0981 22.0006 11.2951 22.3394 11.2951C22.4569 11.2951 22.5762 11.2715 22.6907 11.2214C23.1355 11.0272 23.3387 10.509 23.1444 10.0642L22.9142 9.53704H27.9241C28.0638 9.53704 28.1445 9.6121 28.1801 9.65686C28.2185 9.70503 28.2591 9.7846 28.2349 9.89024L25.1496 23.3667C25.1186 23.5015 24.9879 23.5994 24.8386 23.5994Z" fill="#2C3066"/>
<path d="M9.72675 13.3456C9.24136 13.3456 8.84784 13.7391 8.84784 14.2245V20.6697C8.84784 21.1551 9.24136 21.5486 9.72675 21.5486C10.2121 21.5486 10.6057 21.1551 10.6057 20.6697V14.2245C10.6057 13.7391 10.2122 13.3456 9.72675 13.3456Z" fill="#2C3066"/>
<path d="M14.9999 13.3456C14.5146 13.3456 14.121 13.7391 14.121 14.2245V20.6697C14.121 21.1551 14.5146 21.5486 14.9999 21.5486C15.4853 21.5486 15.8788 21.1551 15.8788 20.6697V14.2245C15.8788 13.7391 15.4853 13.3456 14.9999 13.3456Z" fill="#2C3066"/>
<path d="M20.2734 13.3456C19.788 13.3456 19.3945 13.7391 19.3945 14.2245V20.6697C19.3945 21.1551 19.788 21.5486 20.2734 21.5486C20.7587 21.5486 21.1523 21.1551 21.1523 20.6697V14.2245C21.1522 13.7391 20.7587 13.3456 20.2734 13.3456Z" fill="#2C3066"/>
</svg>
