<svg width="16" height="16" viewBox="0 0 16 16" fill="none" xmlns="http://www.w3.org/2000/svg">
	<path
		d="M15.8881 5.80994C15.7838 5.48737 15.4977 5.25827 15.1592 5.22777L10.5614 4.81027L8.74324 0.554766C8.60919 0.242895 8.30388 0.0410156 7.96466 0.0410156C7.62544 0.0410156 7.32013 0.242894 7.18607 0.555497L5.36795 4.81026L0.769345 5.22775C0.431462 5.25899 0.146084 5.48736 0.041198 5.80993C-0.0636912 6.13249 0.0331763 6.4863 0.288776 6.70933L3.76421 9.75731L2.73939 14.2717C2.6644 14.6036 2.79323 14.9467 3.06864 15.1458C3.21667 15.2528 3.38987 15.3072 3.56452 15.3072C3.71511 15.3072 3.86449 15.2666 3.99854 15.1864L7.96466 12.816L11.9293 15.1864C12.2194 15.3609 12.5851 15.345 12.8599 15.1458C13.1355 14.9461 13.2642 14.6029 13.1892 14.2717L12.1644 9.75731L15.6398 6.70993C15.8954 6.4863 15.993 6.1331 15.8881 5.80993L15.8881 5.80994Z"
		fill="#FFC107"/>
</svg>
